<svg xmlns="http://www.w3.org/2000/svg" viewBox="0 0 476.4 104.63"><defs><style>.cls-1{fill:#204354;}.cls-2{fill:#41d592;}</style></defs><title>Full Lockup (Two Color) (2)</title><g id="Layer_2" data-name="Layer 2"><g id="Layer_1-2" data-name="Layer 1"><g id="Full_Lockup_Two_Color_" data-name="Full Lockup (Two Color)"><polygon class="cls-1" points="211.16 61.75 248.79 61.75 248.79 44.04 211.16 44.04 211.16 21.9 252.14 21.9 251.15 4.19 187.91 4.19 187.91 102.7 251.46 102.7 252.63 83.89 211.16 83.89 211.16 61.75"/><path class="cls-1" d="M350.84,30.26c-10.37,0-17.26,4.26-22.23,12.77-3.55-9.51-11.18-12.77-20.83-12.77A23.09,23.09,0,0,0,288.3,41.4l-.07-11.14L265.4,31.53v71.18h22.14V65.6c0-9.65,3.56-16.75,11.51-16.75,7.38,0,9.52,6,9.52,14.63v39.23h22.14V65.6c0-9.65,3.63-16.75,11.58-16.75s9.45,7.1,9.45,14.63v39.23H375V59.36C375,42.46,368.72,30.26,350.84,30.26Z"/><path class="cls-1" d="M408.2,50.71c0-3.25,2.17-4.69,7.62-4.69,9.16,0,18.24,7,18.24,7l3.42-16.94c-4.32-3.6-13.4-6.51-23.24-6.51-15.92,0-27,9.38-27,22.82,0,8.09,3.48,13.63,8.6,17,10.26,6.86,26,6.75,26,12.61,0,3.8-2.92,5.56-9.16,5.56-5.8,0-15.49-4.28-20.94-9l-6.19,15.95a45,45,0,0,0,27.41,10c26.34,0,30.16-16.91,30.16-24,0-7.58-3.14-13-7.86-16.43C424.94,56.68,408.2,57,408.2,50.71Z"/><rect class="cls-1" x="453.58" y="31.86" width="22.14" height="70.85"/><path class="cls-1" d="M465,23.25h0a11.63,11.63,0,0,0,0-23.25h0a11.63,11.63,0,0,0,0,23.25Z"/><path class="cls-2" d="M66.2,91.82a12.81,12.81,0,0,1-12.82,12.81h0A12.81,12.81,0,0,1,40.57,91.82V52.32A12.82,12.82,0,0,1,53.38,39.5h0A12.82,12.82,0,0,1,66.2,52.32Z"/><rect class="cls-2" x="81.14" width="25.62" height="104.63" rx="12.81"/><circle class="cls-2" cx="12.81" cy="91.82" r="12.81"/><rect class="cls-2" x="121.72" y="18.31" width="25.62" height="54.45" rx="12.81"/></g></g></g></svg>